<mxfile host="app.diagrams.net" modified="2024-07-23T06:44:57.409Z" agent="Mozilla/5.0 (Windows NT 10.0; Win64; x64) AppleWebKit/537.36 (KHTML, like Gecko) Chrome/126.0.0.0 Safari/537.36 Edg/126.0.0.0" etag="CcNOpVRE3xt4PpQiHdZ8" version="24.7.3" type="github">
  <diagram id="C5RBs43oDa-KdzZeNtuy" name="Page-1">
    <mxGraphModel dx="1678" dy="893" grid="1" gridSize="10" guides="1" tooltips="1" connect="1" arrows="1" fold="1" page="1" pageScale="1" pageWidth="827" pageHeight="1169" math="0" shadow="0">
      <root>
        <mxCell id="WIyWlLk6GJQsqaUBKTNV-0" />
        <mxCell id="WIyWlLk6GJQsqaUBKTNV-1" parent="WIyWlLk6GJQsqaUBKTNV-0" />
        <mxCell id="WIyWlLk6GJQsqaUBKTNV-3" value="开始" style="rounded=1;whiteSpace=wrap;html=1;fontSize=12;glass=0;strokeWidth=1;shadow=0;" parent="WIyWlLk6GJQsqaUBKTNV-1" vertex="1">
          <mxGeometry x="216" y="90" width="120" height="40" as="geometry" />
        </mxCell>
        <mxCell id="WIyWlLk6GJQsqaUBKTNV-4" value="" style="rounded=0;html=1;jettySize=auto;orthogonalLoop=1;fontSize=11;endArrow=block;endFill=0;endSize=8;strokeWidth=1;shadow=0;labelBackgroundColor=none;edgeStyle=orthogonalEdgeStyle;" parent="WIyWlLk6GJQsqaUBKTNV-1" target="WIyWlLk6GJQsqaUBKTNV-10" edge="1">
          <mxGeometry y="20" relative="1" as="geometry">
            <mxPoint as="offset" />
            <mxPoint x="276" y="130" as="sourcePoint" />
          </mxGeometry>
        </mxCell>
        <mxCell id="WIyWlLk6GJQsqaUBKTNV-9" value="No" style="edgeStyle=orthogonalEdgeStyle;rounded=0;html=1;jettySize=auto;orthogonalLoop=1;fontSize=11;endArrow=block;endFill=0;endSize=8;strokeWidth=1;shadow=0;labelBackgroundColor=none;" parent="WIyWlLk6GJQsqaUBKTNV-1" source="WIyWlLk6GJQsqaUBKTNV-10" edge="1">
          <mxGeometry y="10" relative="1" as="geometry">
            <mxPoint as="offset" />
            <mxPoint x="410" y="210" as="targetPoint" />
          </mxGeometry>
        </mxCell>
        <mxCell id="WIyWlLk6GJQsqaUBKTNV-10" value="检查appId有效性" style="rhombus;whiteSpace=wrap;html=1;shadow=0;fontFamily=Helvetica;fontSize=12;align=center;strokeWidth=1;spacing=6;spacingTop=-4;" parent="WIyWlLk6GJQsqaUBKTNV-1" vertex="1">
          <mxGeometry x="226" y="170" width="100" height="80" as="geometry" />
        </mxCell>
        <mxCell id="WIyWlLk6GJQsqaUBKTNV-11" value="结束" style="rounded=1;whiteSpace=wrap;html=1;fontSize=12;glass=0;strokeWidth=1;shadow=0;" parent="WIyWlLk6GJQsqaUBKTNV-1" vertex="1">
          <mxGeometry x="216" y="880" width="120" height="40" as="geometry" />
        </mxCell>
        <mxCell id="qYj6Xf7KJ3Vsfvw0kIKf-18" style="edgeStyle=orthogonalEdgeStyle;rounded=0;orthogonalLoop=1;jettySize=auto;html=1;exitX=0.5;exitY=1;exitDx=0;exitDy=0;entryX=0.5;entryY=0;entryDx=0;entryDy=0;" edge="1" parent="WIyWlLk6GJQsqaUBKTNV-1" source="E3orRacTYxrtC4RA-nsR-3" target="E3orRacTYxrtC4RA-nsR-19">
          <mxGeometry relative="1" as="geometry" />
        </mxCell>
        <mxCell id="E3orRacTYxrtC4RA-nsR-3" value="查询缓存中是否有规则配置" style="rhombus;whiteSpace=wrap;html=1;shadow=0;fontFamily=Helvetica;fontSize=12;align=center;strokeWidth=1;spacing=6;spacingTop=-4;" parent="WIyWlLk6GJQsqaUBKTNV-1" vertex="1">
          <mxGeometry x="226" y="170" width="100" height="80" as="geometry" />
        </mxCell>
        <mxCell id="E3orRacTYxrtC4RA-nsR-6" value="No" style="edgeStyle=orthogonalEdgeStyle;rounded=0;html=1;jettySize=auto;orthogonalLoop=1;fontSize=11;endArrow=block;endFill=0;endSize=8;strokeWidth=1;shadow=0;labelBackgroundColor=none;" parent="WIyWlLk6GJQsqaUBKTNV-1" target="E3orRacTYxrtC4RA-nsR-9" edge="1">
          <mxGeometry y="10" relative="1" as="geometry">
            <mxPoint as="offset" />
            <mxPoint x="326" y="400" as="sourcePoint" />
          </mxGeometry>
        </mxCell>
        <mxCell id="E3orRacTYxrtC4RA-nsR-8" value="" style="edgeStyle=orthogonalEdgeStyle;rounded=0;orthogonalLoop=1;jettySize=auto;html=1;" parent="WIyWlLk6GJQsqaUBKTNV-1" source="E3orRacTYxrtC4RA-nsR-9" edge="1">
          <mxGeometry relative="1" as="geometry">
            <mxPoint x="326" y="400" as="targetPoint" />
          </mxGeometry>
        </mxCell>
        <mxCell id="E3orRacTYxrtC4RA-nsR-9" value="appId 无效" style="rounded=1;whiteSpace=wrap;html=1;fontSize=12;glass=0;strokeWidth=1;shadow=0;" parent="WIyWlLk6GJQsqaUBKTNV-1" vertex="1">
          <mxGeometry x="376" y="380" width="120" height="40" as="geometry" />
        </mxCell>
        <mxCell id="E3orRacTYxrtC4RA-nsR-10" value="No" style="edgeStyle=orthogonalEdgeStyle;rounded=0;html=1;jettySize=auto;orthogonalLoop=1;fontSize=11;endArrow=block;endFill=0;endSize=8;strokeWidth=1;shadow=0;labelBackgroundColor=none;" parent="WIyWlLk6GJQsqaUBKTNV-1" target="E3orRacTYxrtC4RA-nsR-13" edge="1">
          <mxGeometry y="10" relative="1" as="geometry">
            <mxPoint as="offset" />
            <mxPoint x="326" y="400" as="sourcePoint" />
          </mxGeometry>
        </mxCell>
        <mxCell id="E3orRacTYxrtC4RA-nsR-12" value="" style="edgeStyle=orthogonalEdgeStyle;rounded=0;orthogonalLoop=1;jettySize=auto;html=1;" parent="WIyWlLk6GJQsqaUBKTNV-1" source="E3orRacTYxrtC4RA-nsR-13" edge="1">
          <mxGeometry relative="1" as="geometry">
            <mxPoint x="326" y="400" as="targetPoint" />
          </mxGeometry>
        </mxCell>
        <mxCell id="E3orRacTYxrtC4RA-nsR-13" value="不在时间范围内返回未匹配提示" style="rounded=1;whiteSpace=wrap;html=1;fontSize=12;glass=0;strokeWidth=1;shadow=0;" parent="WIyWlLk6GJQsqaUBKTNV-1" vertex="1">
          <mxGeometry x="376" y="380" width="120" height="40" as="geometry" />
        </mxCell>
        <mxCell id="E3orRacTYxrtC4RA-nsR-19" value="匹配时间规则" style="rounded=0;whiteSpace=wrap;html=1;" parent="WIyWlLk6GJQsqaUBKTNV-1" vertex="1">
          <mxGeometry x="216" y="370" width="120" height="60" as="geometry" />
        </mxCell>
        <mxCell id="E3orRacTYxrtC4RA-nsR-21" value="No" style="edgeStyle=orthogonalEdgeStyle;rounded=0;html=1;jettySize=auto;orthogonalLoop=1;fontSize=11;endArrow=block;endFill=0;endSize=8;strokeWidth=1;shadow=0;labelBackgroundColor=none;" parent="WIyWlLk6GJQsqaUBKTNV-1" target="E3orRacTYxrtC4RA-nsR-23" edge="1">
          <mxGeometry y="10" relative="1" as="geometry">
            <mxPoint as="offset" />
            <mxPoint x="326" y="510" as="sourcePoint" />
          </mxGeometry>
        </mxCell>
        <mxCell id="E3orRacTYxrtC4RA-nsR-22" value="" style="edgeStyle=orthogonalEdgeStyle;rounded=0;orthogonalLoop=1;jettySize=auto;html=1;" parent="WIyWlLk6GJQsqaUBKTNV-1" source="E3orRacTYxrtC4RA-nsR-23" edge="1">
          <mxGeometry relative="1" as="geometry">
            <mxPoint x="326" y="510" as="targetPoint" />
          </mxGeometry>
        </mxCell>
        <mxCell id="E3orRacTYxrtC4RA-nsR-23" value="appId 无效" style="rounded=1;whiteSpace=wrap;html=1;fontSize=12;glass=0;strokeWidth=1;shadow=0;" parent="WIyWlLk6GJQsqaUBKTNV-1" vertex="1">
          <mxGeometry x="376" y="490" width="120" height="40" as="geometry" />
        </mxCell>
        <mxCell id="E3orRacTYxrtC4RA-nsR-24" value="No" style="edgeStyle=orthogonalEdgeStyle;rounded=0;html=1;jettySize=auto;orthogonalLoop=1;fontSize=11;endArrow=block;endFill=0;endSize=8;strokeWidth=1;shadow=0;labelBackgroundColor=none;" parent="WIyWlLk6GJQsqaUBKTNV-1" target="E3orRacTYxrtC4RA-nsR-26" edge="1">
          <mxGeometry y="10" relative="1" as="geometry">
            <mxPoint as="offset" />
            <mxPoint x="326" y="510" as="sourcePoint" />
          </mxGeometry>
        </mxCell>
        <mxCell id="E3orRacTYxrtC4RA-nsR-25" value="" style="edgeStyle=orthogonalEdgeStyle;rounded=0;orthogonalLoop=1;jettySize=auto;html=1;" parent="WIyWlLk6GJQsqaUBKTNV-1" source="E3orRacTYxrtC4RA-nsR-26" edge="1">
          <mxGeometry relative="1" as="geometry">
            <mxPoint x="326" y="510" as="targetPoint" />
          </mxGeometry>
        </mxCell>
        <mxCell id="E3orRacTYxrtC4RA-nsR-26" value="未匹配到规则返回未匹配提示" style="rounded=1;whiteSpace=wrap;html=1;fontSize=12;glass=0;strokeWidth=1;shadow=0;" parent="WIyWlLk6GJQsqaUBKTNV-1" vertex="1">
          <mxGeometry x="376" y="490" width="120" height="40" as="geometry" />
        </mxCell>
        <mxCell id="E3orRacTYxrtC4RA-nsR-27" value="Yes" style="rounded=0;html=1;jettySize=auto;orthogonalLoop=1;fontSize=11;endArrow=block;endFill=0;endSize=8;strokeWidth=1;shadow=0;labelBackgroundColor=none;edgeStyle=orthogonalEdgeStyle;exitX=0.495;exitY=1;exitDx=0;exitDy=0;exitPerimeter=0;" parent="WIyWlLk6GJQsqaUBKTNV-1" edge="1">
          <mxGeometry x="0.3333" y="20" relative="1" as="geometry">
            <mxPoint as="offset" />
            <mxPoint x="276" y="430" as="sourcePoint" />
            <mxPoint x="275.5" y="480" as="targetPoint" />
            <Array as="points">
              <mxPoint x="276" y="461" />
              <mxPoint x="277" y="461" />
              <mxPoint x="277" y="460" />
              <mxPoint x="276" y="460" />
            </Array>
          </mxGeometry>
        </mxCell>
        <mxCell id="E3orRacTYxrtC4RA-nsR-35" style="edgeStyle=orthogonalEdgeStyle;rounded=0;orthogonalLoop=1;jettySize=auto;html=1;exitX=0.5;exitY=1;exitDx=0;exitDy=0;entryX=0.5;entryY=0;entryDx=0;entryDy=0;" parent="WIyWlLk6GJQsqaUBKTNV-1" source="E3orRacTYxrtC4RA-nsR-28" target="E3orRacTYxrtC4RA-nsR-33" edge="1">
          <mxGeometry relative="1" as="geometry" />
        </mxCell>
        <mxCell id="E3orRacTYxrtC4RA-nsR-28" value="匹配正则规则" style="rounded=0;whiteSpace=wrap;html=1;" parent="WIyWlLk6GJQsqaUBKTNV-1" vertex="1">
          <mxGeometry x="216" y="480" width="120" height="60" as="geometry" />
        </mxCell>
        <mxCell id="qYj6Xf7KJ3Vsfvw0kIKf-22" value="" style="edgeStyle=orthogonalEdgeStyle;rounded=0;orthogonalLoop=1;jettySize=auto;html=1;" edge="1" parent="WIyWlLk6GJQsqaUBKTNV-1" source="E3orRacTYxrtC4RA-nsR-33" target="qYj6Xf7KJ3Vsfvw0kIKf-21">
          <mxGeometry relative="1" as="geometry" />
        </mxCell>
        <mxCell id="qYj6Xf7KJ3Vsfvw0kIKf-27" value="" style="edgeStyle=orthogonalEdgeStyle;rounded=0;orthogonalLoop=1;jettySize=auto;html=1;" edge="1" parent="WIyWlLk6GJQsqaUBKTNV-1" source="E3orRacTYxrtC4RA-nsR-33" target="qYj6Xf7KJ3Vsfvw0kIKf-24">
          <mxGeometry relative="1" as="geometry" />
        </mxCell>
        <mxCell id="E3orRacTYxrtC4RA-nsR-33" value="从redis查询白名单版本" style="rounded=0;whiteSpace=wrap;html=1;" parent="WIyWlLk6GJQsqaUBKTNV-1" vertex="1">
          <mxGeometry x="216" y="580" width="120" height="60" as="geometry" />
        </mxCell>
        <mxCell id="E3orRacTYxrtC4RA-nsR-50" value="&lt;span style=&quot;color: rgb(0, 0, 0); font-family: Helvetica; font-size: 11px; font-style: normal; font-variant-ligatures: normal; font-variant-caps: normal; font-weight: 400; letter-spacing: normal; orphans: 2; text-align: center; text-indent: 0px; text-transform: none; widows: 2; word-spacing: 0px; -webkit-text-stroke-width: 0px; white-space: nowrap; background-color: rgb(251, 251, 251); text-decoration-thickness: initial; text-decoration-style: initial; text-decoration-color: initial; display: inline !important; float: none;&quot;&gt;Yes&lt;/span&gt;" style="text;whiteSpace=wrap;html=1;" parent="WIyWlLk6GJQsqaUBKTNV-1" vertex="1">
          <mxGeometry x="286" y="550" width="40" height="20" as="geometry" />
        </mxCell>
        <mxCell id="qYj6Xf7KJ3Vsfvw0kIKf-13" value="从db中查询正则规则以及时间规则缓存至redis中" style="rounded=0;whiteSpace=wrap;html=1;" vertex="1" parent="WIyWlLk6GJQsqaUBKTNV-1">
          <mxGeometry x="408" y="290" width="120" height="60" as="geometry" />
        </mxCell>
        <mxCell id="qYj6Xf7KJ3Vsfvw0kIKf-17" value="" style="edgeStyle=orthogonalEdgeStyle;rounded=0;orthogonalLoop=1;jettySize=auto;html=1;" edge="1" parent="WIyWlLk6GJQsqaUBKTNV-1" source="qYj6Xf7KJ3Vsfvw0kIKf-14" target="qYj6Xf7KJ3Vsfvw0kIKf-13">
          <mxGeometry relative="1" as="geometry" />
        </mxCell>
        <mxCell id="qYj6Xf7KJ3Vsfvw0kIKf-14" value="redis锁名单5秒" style="shape=hexagon;perimeter=hexagonPerimeter2;whiteSpace=wrap;html=1;fixedSize=1;" vertex="1" parent="WIyWlLk6GJQsqaUBKTNV-1">
          <mxGeometry x="406" y="180" width="124" height="60" as="geometry" />
        </mxCell>
        <mxCell id="qYj6Xf7KJ3Vsfvw0kIKf-19" value="Yes" style="text;html=1;align=center;verticalAlign=middle;resizable=0;points=[];autosize=1;strokeColor=none;fillColor=none;" vertex="1" parent="WIyWlLk6GJQsqaUBKTNV-1">
          <mxGeometry x="267" y="280" width="50" height="30" as="geometry" />
        </mxCell>
        <mxCell id="qYj6Xf7KJ3Vsfvw0kIKf-20" style="edgeStyle=orthogonalEdgeStyle;rounded=0;orthogonalLoop=1;jettySize=auto;html=1;entryX=0.5;entryY=0;entryDx=0;entryDy=0;entryPerimeter=0;" edge="1" parent="WIyWlLk6GJQsqaUBKTNV-1" source="qYj6Xf7KJ3Vsfvw0kIKf-13" target="E3orRacTYxrtC4RA-nsR-19">
          <mxGeometry relative="1" as="geometry" />
        </mxCell>
        <mxCell id="qYj6Xf7KJ3Vsfvw0kIKf-21" value="查询失败返回错误" style="rounded=1;whiteSpace=wrap;html=1;fontSize=12;glass=0;strokeWidth=1;shadow=0;" vertex="1" parent="WIyWlLk6GJQsqaUBKTNV-1">
          <mxGeometry x="376" y="590" width="120" height="40" as="geometry" />
        </mxCell>
        <mxCell id="qYj6Xf7KJ3Vsfvw0kIKf-23" value="" style="edgeStyle=orthogonalEdgeStyle;rounded=0;orthogonalLoop=1;jettySize=auto;html=1;" edge="1" parent="WIyWlLk6GJQsqaUBKTNV-1" source="qYj6Xf7KJ3Vsfvw0kIKf-24" target="qYj6Xf7KJ3Vsfvw0kIKf-26">
          <mxGeometry relative="1" as="geometry" />
        </mxCell>
        <mxCell id="qYj6Xf7KJ3Vsfvw0kIKf-29" value="" style="edgeStyle=orthogonalEdgeStyle;rounded=0;orthogonalLoop=1;jettySize=auto;html=1;" edge="1" parent="WIyWlLk6GJQsqaUBKTNV-1" source="qYj6Xf7KJ3Vsfvw0kIKf-24" target="qYj6Xf7KJ3Vsfvw0kIKf-28">
          <mxGeometry relative="1" as="geometry" />
        </mxCell>
        <mxCell id="qYj6Xf7KJ3Vsfvw0kIKf-24" value="根据白名单版本从redis查询当前匹配的key" style="rounded=0;whiteSpace=wrap;html=1;" vertex="1" parent="WIyWlLk6GJQsqaUBKTNV-1">
          <mxGeometry x="216" y="680" width="120" height="60" as="geometry" />
        </mxCell>
        <mxCell id="qYj6Xf7KJ3Vsfvw0kIKf-25" value="&lt;span style=&quot;color: rgb(0, 0, 0); font-family: Helvetica; font-size: 11px; font-style: normal; font-variant-ligatures: normal; font-variant-caps: normal; font-weight: 400; letter-spacing: normal; orphans: 2; text-align: center; text-indent: 0px; text-transform: none; widows: 2; word-spacing: 0px; -webkit-text-stroke-width: 0px; white-space: nowrap; background-color: rgb(251, 251, 251); text-decoration-thickness: initial; text-decoration-style: initial; text-decoration-color: initial; display: inline !important; float: none;&quot;&gt;Yes&lt;/span&gt;" style="text;whiteSpace=wrap;html=1;" vertex="1" parent="WIyWlLk6GJQsqaUBKTNV-1">
          <mxGeometry x="280" y="650" width="40" height="20" as="geometry" />
        </mxCell>
        <mxCell id="qYj6Xf7KJ3Vsfvw0kIKf-26" value="查询失败返回错误" style="rounded=1;whiteSpace=wrap;html=1;fontSize=12;glass=0;strokeWidth=1;shadow=0;" vertex="1" parent="WIyWlLk6GJQsqaUBKTNV-1">
          <mxGeometry x="370" y="690" width="120" height="40" as="geometry" />
        </mxCell>
        <mxCell id="qYj6Xf7KJ3Vsfvw0kIKf-31" value="" style="edgeStyle=orthogonalEdgeStyle;rounded=0;orthogonalLoop=1;jettySize=auto;html=1;" edge="1" parent="WIyWlLk6GJQsqaUBKTNV-1" source="qYj6Xf7KJ3Vsfvw0kIKf-28" target="qYj6Xf7KJ3Vsfvw0kIKf-30">
          <mxGeometry relative="1" as="geometry" />
        </mxCell>
        <mxCell id="qYj6Xf7KJ3Vsfvw0kIKf-36" value="" style="edgeStyle=orthogonalEdgeStyle;rounded=0;orthogonalLoop=1;jettySize=auto;html=1;" edge="1" parent="WIyWlLk6GJQsqaUBKTNV-1" source="qYj6Xf7KJ3Vsfvw0kIKf-28" target="WIyWlLk6GJQsqaUBKTNV-11">
          <mxGeometry relative="1" as="geometry" />
        </mxCell>
        <mxCell id="qYj6Xf7KJ3Vsfvw0kIKf-28" value="判断key是否存在并且不为空" style="rhombus;whiteSpace=wrap;html=1;shadow=0;fontFamily=Helvetica;fontSize=12;align=center;strokeWidth=1;spacing=6;spacingTop=-4;" vertex="1" parent="WIyWlLk6GJQsqaUBKTNV-1">
          <mxGeometry x="226" y="770" width="100" height="80" as="geometry" />
        </mxCell>
        <mxCell id="qYj6Xf7KJ3Vsfvw0kIKf-30" value="返回匹配失败提示" style="rounded=1;whiteSpace=wrap;html=1;fontSize=12;glass=0;strokeWidth=1;shadow=0;" vertex="1" parent="WIyWlLk6GJQsqaUBKTNV-1">
          <mxGeometry x="360" y="790" width="120" height="40" as="geometry" />
        </mxCell>
        <mxCell id="qYj6Xf7KJ3Vsfvw0kIKf-32" value="No" style="text;html=1;align=center;verticalAlign=middle;resizable=0;points=[];autosize=1;strokeColor=none;fillColor=none;" vertex="1" parent="WIyWlLk6GJQsqaUBKTNV-1">
          <mxGeometry x="322" y="780" width="40" height="30" as="geometry" />
        </mxCell>
        <mxCell id="qYj6Xf7KJ3Vsfvw0kIKf-33" value="No" style="text;html=1;align=center;verticalAlign=middle;resizable=0;points=[];autosize=1;strokeColor=none;fillColor=none;" vertex="1" parent="WIyWlLk6GJQsqaUBKTNV-1">
          <mxGeometry x="330" y="585" width="40" height="30" as="geometry" />
        </mxCell>
        <mxCell id="qYj6Xf7KJ3Vsfvw0kIKf-34" value="No" style="text;html=1;align=center;verticalAlign=middle;resizable=0;points=[];autosize=1;strokeColor=none;fillColor=none;" vertex="1" parent="WIyWlLk6GJQsqaUBKTNV-1">
          <mxGeometry x="332" y="680" width="40" height="30" as="geometry" />
        </mxCell>
        <mxCell id="qYj6Xf7KJ3Vsfvw0kIKf-35" value="Yes" style="text;html=1;align=center;verticalAlign=middle;resizable=0;points=[];autosize=1;strokeColor=none;fillColor=none;" vertex="1" parent="WIyWlLk6GJQsqaUBKTNV-1">
          <mxGeometry x="267" y="740" width="50" height="30" as="geometry" />
        </mxCell>
      </root>
    </mxGraphModel>
  </diagram>
</mxfile>
